<svg xmlns="http://www.w3.org/2000/svg" viewBox="0 0 128 128" role="img" aria-labelledby="t">
  <title id="t">SiteMark</title>
  <defs>
    <linearGradient id="tile" x1="0" y1="0" x2="1" y2="1">
      <stop offset="0" stop-color="#f1f3f7"/>
      <stop offset="1" stop-color="#dde1e8"/>
    </linearGradient>
    <linearGradient id="ribbon" x1="0" y1="0" x2="0" y2="1">
      <stop offset="0" stop-color="#ff7a6b"/>
      <stop offset="1" stop-color="#e5483b"/>
    </linearGradient>
    <linearGradient id="fold" x1="0" y1="0" x2="1" y2="0">
      <stop offset="0" stop-color="#ffffff" stop-opacity=".35"/>
      <stop offset="1" stop-color="#ffffff" stop-opacity="0"/>
    </linearGradient>
    <filter id="soft" x="-20%" y="-20%" width="140%" height="140%">
      <feDropShadow dx="-2" dy="-2" stdDeviation="2.5" flood-color="#ffffff" flood-opacity=".6"/>
      <feDropShadow dx="4" dy="4" stdDeviation="4" flood-color="#a3acbb" flood-opacity=".7"/>
    </filter>
    <filter id="lift" x="-30%" y="-30%" width="160%" height="160%">
      <feDropShadow dx="2" dy="3" stdDeviation="2.5" flood-color="#8a2a22" flood-opacity=".35"/>
    </filter>
  </defs>
  <!-- Neumorphic tile -->
  <rect x="10" y="10" width="108" height="108" rx="28" fill="url(#tile)" filter="url(#soft)"/>
  <!-- Bookmark ribbon: the "Mark" -->
  <g filter="url(#lift)">
    <path d="M42 24h40a6 6 0 0 1 6 6v74l-26-17-26 17V30a6 6 0 0 1 6-6z" fill="url(#ribbon)"/>
    <path d="M42 24h14v68l-20 13V30a6 6 0 0 1 6-6z" fill="url(#fold)"/>
  </g>
  <!-- Picker cursor -->
  <path d="M70 56v34l8.5-8 6 13.5 7-3-6-13.2H97z"
        fill="#ffffff" stroke="#2b2f38" stroke-width="3.5" stroke-linejoin="round"/>
</svg>
